<svg width="21" height="13" viewBox="0 0 21 13" fill="none" xmlns="http://www.w3.org/2000/svg">
<path d="M10.816 11.44L10.896 12.016L7.536 11.952L7.488 11.552L8.288 11.232L2.896 3.184L2.976 11.216L3.792 11.488L3.856 12.08L0.512 12.016L0.48 11.616L1.792 11.104L1.68 1.6L0.64 1.312L0.656 0.848L4.128 0.815999L4.192 1.28L3.28 1.552L8.672 9.792L8.832 1.536L7.696 1.248L7.712 0.783999L11.168 0.768L11.248 1.2L10.176 1.536L9.648 11.072L10.816 11.44ZM19.6064 3.12H18.9824L18.7104 2.08L14.8064 1.952L14.9344 5.584L18.8224 5.712V6.352L14.8064 6.88L15.1904 11.184L16.5024 11.296L16.7584 12.08H12.8544L12.7424 11.568L13.6224 11.44L13.3824 1.824L12.3264 1.424L12.2144 0.912H14.8064L20.1344 0.799999L19.6064 3.12Z" fill="url(#paint0_linear_774_885)"/>
<defs>
<linearGradient id="paint0_linear_774_885" x1="-1.23711" y1="5.55422" x2="3.10971" y2="8.50616" gradientUnits="userSpaceOnUse">
<stop stop-color="#217BF4"/>
<stop offset="1" stop-color="#0A093D"/>
</linearGradient>
</defs>
</svg>
